Coordinates
version=1
nRows=17
nColumns=27
inDegrees=yes

Units are S.I. units (second, meters, Newtons, ...)
If the header above contains a line with 'inDegrees', this indicates whether rotational values are in degrees (yes) or radians (no).

endheader
time	pelvis_rotation	pelvis_tilt	pelvis_list	pelvis_tx	pelvis_ty	pelvis_tz	hip_flexion_r	hip_adduction_r	hip_rotation_r	knee_angle_r	knee_rotation_r	knee_adduction_r	knee_angle_r_beta	ankle_angle_r	subtalar_angle_r	mtp_angle_r	hip_flexion_l	hip_adduction_l	hip_rotation_l	knee_angle_l	knee_rotation_l	knee_adduction_l	knee_angle_l_beta	ankle_angle_l	subtalar_angle_l	mtp_angle_l
      4.78500000	      5.07939898	    -23.47960832	      2.64697572	     -0.00038785	      0.44427967	     -1.14075645	    119.65291197	    -45.02619925	     27.81997140	    109.65345305	      0.00000000	      9.93819906	      1.91381379	     19.80649908	      0.00000000	      0.00000000	    116.66806705	    -35.38947971	     22.19954526	    103.59135069	      0.00000000	     -9.95288226	      1.80801015	     13.12596426	      0.00000000	      0.00000000
      4.79000000	      5.17948918	    -23.35466677	      2.56112809	     -0.00010067	      0.44299232	     -1.14084767	    119.64642027	    -45.16843057	     27.91839010	    109.80372758	      0.00000000	      9.93825377	      1.91643658	     19.89042337	      0.00000000	      0.00000000	    116.80357854	    -35.19870949	     22.44714576	    103.77921170	      0.00000000	     -9.95295624	      1.81128894	     13.16006993	      0.00000000	      0.00000000
      4.79500000	      5.26647903	    -23.26099977	      2.47543689	      0.00014524	      0.44172344	     -1.14094801	    119.67514579	    -45.28981659	     28.01856971	    109.95166383	      0.00000000	      9.93835903	      1.91901855	     19.95081749	      0.00000000	      0.00000000	    116.96059780	    -35.01802482	     22.69104183	    103.96374095	      0.00000000	     -9.95303220	      1.81450958	     13.24822071	      0.00000000	      0.00000000
      4.80000000	      5.12394671	    -23.24561777	      2.56456367	      0.00029249	      0.44046957	     -1.14092543	    119.92110972	    -44.99234081	     28.31762068	    110.12835588	      0.00000000	      9.93835154	      1.92210241	     19.98644122	      0.00000000	      0.00000000	    117.07632934	    -35.23015840	     22.73620096	    104.11621561	      0.00000000	     -9.95316891	      1.81717077	     13.26655647	      0.00000000	      0.00000000
      4.80500000	      5.09998402	    -23.20197812	      2.57027229	      0.00045654	      0.43927049	     -1.14097284	    120.06596490	    -44.91103320	     28.51539520	    110.28175858	      0.00000000	      9.93837932	      1.92477979	     20.03761820	      0.00000000	      0.00000000	    117.21459387	    -35.25072609	     22.86496116	    104.27449433	      0.00000000	     -9.95329485	      1.81993325	     13.32696826	      0.00000000	      0.00000000
      4.81000000	      5.19635042	    -23.13208394	      2.48829259	      0.00063097	      0.43810356	     -1.14107516	    120.11974071	    -45.05214424	     28.60871728	    110.41319401	      0.00000000	      9.93846052	      1.92707377	     20.08650510	      0.00000000	      0.00000000	    117.39433746	    -35.07368607	     23.08766387	    104.44357628	      0.00000000	     -9.95335692	      1.82288429	     13.35458495	      0.00000000	      0.00000000
      4.81500000	      5.11527395	    -23.12427650	      2.54517168	      0.00073438	      0.43699458	     -1.14107665	    120.33831442	    -44.86744843	     28.84848693	    110.56189085	      0.00000000	      9.93851320	      1.92966902	     20.11188263	      0.00000000	      0.00000000	    117.52427222	    -35.20303621	     23.14806307	    104.57539825	      0.00000000	     -9.95350087	      1.82518502	     13.38328409	      0.00000000	      0.00000000
      4.82000000	      5.28484246	    -23.04409411	      2.40192725	      0.00087916	      0.43594859	     -1.14121230	    120.32339408	    -45.15539448	     28.84791171	    110.66434362	      0.00000000	      9.93866125	      1.93145716	     20.15183861	      0.00000000	      0.00000000	    117.71936544	    -34.89751152	     23.42304683	    104.73645456	      0.00000000	     -9.95358201	      1.82799598	     13.42805493	      0.00000000	      0.00000000
      4.82500000	      5.12958058	    -23.09447999	      2.53092339	      0.00090626	      0.43488778	     -1.14119032	    120.66223319	    -44.83105580	     29.17062744	    110.81701844	      0.00000000	      9.93865123	      1.93412184	     20.16120550	      0.00000000	      0.00000000	    117.86375586	    -35.17522897	     23.39534459	    104.84949258	      0.00000000	     -9.95371923	      1.82996886	     13.40976760	      0.00000000	      0.00000000
      4.83000000	      5.27372629	    -23.04793573	      2.38354672	      0.00104043	      0.43390383	     -1.14129538	    120.68346164	    -45.11035982	     29.14587943	    110.92356481	      0.00000000	      9.93870088	      1.93598142	     20.21757882	      0.00000000	      0.00000000	    118.11927001	    -34.92723482	     23.66395625	    105.00614860	      0.00000000	     -9.95379981	      1.83270303	     13.37113039	      0.00000000	      0.00000000
      4.83500000	      5.19606988	    -23.06413983	      2.48199958	      0.00102694	      0.43295231	     -1.14132557	    120.96079073	    -44.90642551	     29.43437013	    111.04141425	      0.00000000	      9.93883523	      1.93803828	     20.17157240	      0.00000000	      0.00000000	    118.22335108	    -35.08320501	     23.65549491	    105.10355577	      0.00000000	     -9.95389026	      1.83440310	     13.37924688	      0.00000000	      0.00000000
      4.84000000	      5.31443151	    -23.06475371	      2.39188553	      0.00104477	      0.43213589	     -1.14145611	    121.03431524	    -45.10002374	     29.45546131	    111.11141999	      0.00000000	      9.93897259	      1.93926012	     20.21985457	      0.00000000	      0.00000000	    118.44259020	    -34.88522795	     23.83684914	    105.23085677	      0.00000000	     -9.95396485	      1.83662493	     13.38924479	      0.00000000	      0.00000000
      4.84500000	      5.16368971	    -23.14970317	      2.51590861	      0.00096693	      0.43121832	     -1.14142791	    121.40724000	    -44.79056809	     29.75194700	    111.24542545	      0.00000000	      9.93895469	      1.94159895	     20.17818663	      0.00000000	      0.00000000	    118.61194369	    -35.15526321	     23.80079429	    105.31791065	      0.00000000	     -9.95409756	      1.83814430	     13.38413452	      0.00000000	      0.00000000
      4.85000000	      5.22901226	    -23.16891324	      2.42434925	      0.00093558	      0.43044614	     -1.14150848	    121.49818466	    -44.91456321	     29.76452366	    111.32006155	      0.00000000	      9.93904969	      1.94290160	     20.19297565	      0.00000000	      0.00000000	    118.85031818	    -35.02522997	     23.98568901	    105.42544440	      0.00000000	     -9.95416175	      1.84002112	     13.35415741	      0.00000000	      0.00000000
      4.85500000	      5.26492032	    -23.20183273	      2.30407851	      0.00086560	      0.42971416	     -1.14157083	    121.55997847	    -45.02636363	     29.70720809	    111.38941595	      0.00000000	      9.93907160	      1.94411206	     20.24771739	      0.00000000	      0.00000000	    119.15150446	    -34.92205650	     24.20532721	    105.53654142	      0.00000000	     -9.95419785	      1.84196013	     13.26801656	      0.00000000	      0.00000000
      4.86000000	      5.19144677	    -23.29100507	      2.53814444	      0.00074519	      0.42897555	     -1.14163179	    122.05038191	    -44.74341312	     30.15915478	    111.49977911	      0.00000000	      9.93911835	      1.94603826	     20.13776991	      0.00000000	      0.00000000	    119.19724220	    -35.16131697	     24.00014747	    105.59811114	      0.00000000	     -9.95427653	      1.84303472	     13.27997122	      0.00000000	      0.00000000
      4.86500000	      5.21002925	    -23.34190900	      2.54052667	      0.00061828	      0.42836261	     -1.14171616	    122.24454721	    -44.74547139	     30.26345090	    111.56319909	      0.00000000	      9.93913147	      1.94714515	     20.11882534	      0.00000000	      0.00000000	    119.38408571	    -35.14119796	     24.05476635	    105.67876805	      0.00000000	     -9.95431259	      1.84444245	     13.25223725	      0.00000000	      0.00000000
